<svg viewBox="0 0 200 200" xmlns="http://www.w3.org/2000/svg" role="img" aria-label="Dharma wheel with twenty-four spokes">
  <circle cx="100" cy="100" r="94" fill="#FFF8E7" stroke="#F4C542" stroke-width="4"/>
  <circle cx="100" cy="100" r="74" fill="none" stroke="#EF7F31" stroke-width="3"/>
  <circle cx="100" cy="100" r="18" fill="#FE7D9C" stroke="#EF7F31" stroke-width="3"/>
  <g stroke="#EF7F31" stroke-width="3" stroke-linecap="round">
    <line x1="100" y1="26" x2="100" y2="82"/>
    <line x1="100" y1="118" x2="100" y2="174"/>
    <line x1="26" y1="100" x2="82" y2="100"/>
    <line x1="118" y1="100" x2="174" y2="100"/>
    <line x1="47" y1="47" x2="83" y2="83"/>
    <line x1="117" y1="117" x2="153" y2="153"/>
    <line x1="153" y1="47" x2="117" y2="83"/>
    <line x1="83" y1="117" x2="47" y2="153"/>
    <line x1="63" y1="32" x2="79" y2="76"/>
    <line x1="121" y1="124" x2="137" y2="168"/>
    <line x1="168" y1="63" x2="124" y2="79"/>
    <line x1="76" y1="121" x2="32" y2="137"/>
    <line x1="137" y1="32" x2="121" y2="76"/>
    <line x1="79" y1="124" x2="63" y2="168"/>
    <line x1="32" y1="63" x2="76" y2="79"/>
    <line x1="124" y1="121" x2="168" y2="137"/>
    <line x1="100" y1="8" x2="100" y2="24"/>
    <line x1="100" y1="176" x2="100" y2="192"/>
    <line x1="8" y1="100" x2="24" y2="100"/>
    <line x1="176" y1="100" x2="192" y2="100"/>
  </g>
</svg>
